<svg width="19" height="22" viewBox="0 0 19 22" fill="none" xmlns="http://www.w3.org/2000/svg">
<g clip-path="url(#clip0_281_3839)">
<path d="M16.0417 0.485352H2.29167C1.02602 0.485352 0 1.65737 0 3.10311V18.8097C0 20.2555 1.02602 21.4275 2.29167 21.4275H16.0417C17.3073 21.4275 18.3333 20.2555 18.3333 18.8097V3.10311C18.3333 1.65737 17.3073 0.485352 16.0417 0.485352Z" fill="#F55037"/>
<path fill-rule="evenodd" clip-rule="evenodd" d="M2.75 4.58329C2.75 4.07704 3.12471 3.66663 3.58695 3.66663H14.7464C15.2086 3.66663 15.5833 4.07704 15.5833 4.58329C15.5833 5.08955 15.2086 5.49996 14.7464 5.49996H3.58695C3.12471 5.49996 2.75 5.08955 2.75 4.58329Z" fill="#FFFCF5"/>
<path d="M7.41667 10.7708C8.061 10.7708 8.58334 10.2065 8.58334 9.51042C8.58334 8.81431 8.061 8.25 7.41667 8.25C6.77233 8.25 6.25 8.81431 6.25 9.51042C6.25 10.2065 6.77233 10.7708 7.41667 10.7708Z" fill="white"/>
<path d="M10.9166 10.7708C11.561 10.7708 12.0833 10.2065 12.0833 9.51042C12.0833 8.81431 11.561 8.25 10.9166 8.25C10.2723 8.25 9.75 8.81431 9.75 9.51042C9.75 10.2065 10.2723 10.7708 10.9166 10.7708Z" fill="white"/>
<path d="M14.4167 10.7708C15.0611 10.7708 15.5834 10.2065 15.5834 9.51042C15.5834 8.81431 15.0611 8.25 14.4167 8.25C13.7724 8.25 13.25 8.81431 13.25 9.51042C13.25 10.2065 13.7724 10.7708 14.4167 10.7708Z" fill="white"/>
<path d="M3.91667 14.5521C4.561 14.5521 5.08333 13.9878 5.08333 13.2917C5.08333 12.5955 4.561 12.0312 3.91667 12.0312C3.27233 12.0312 2.75 12.5955 2.75 13.2917C2.75 13.9878 3.27233 14.5521 3.91667 14.5521Z" fill="white"/>
<path d="M7.41667 14.5521C8.061 14.5521 8.58334 13.9878 8.58334 13.2917C8.58334 12.5955 8.061 12.0312 7.41667 12.0312C6.77233 12.0312 6.25 12.5955 6.25 13.2917C6.25 13.9878 6.77233 14.5521 7.41667 14.5521Z" fill="white"/>
<path d="M10.9166 14.5521C11.561 14.5521 12.0833 13.9878 12.0833 13.2917C12.0833 12.5955 11.561 12.0312 10.9166 12.0312C10.2723 12.0312 9.75 12.5955 9.75 13.2917C9.75 13.9878 10.2723 14.5521 10.9166 14.5521Z" fill="white"/>
<path d="M14.4167 14.5521C15.0611 14.5521 15.5834 13.9878 15.5834 13.2917C15.5834 12.5955 15.0611 12.0312 14.4167 12.0312C13.7724 12.0312 13.25 12.5955 13.25 13.2917C13.25 13.9878 13.7724 14.5521 14.4167 14.5521Z" fill="white"/>
<path d="M3.91667 18.3333C4.561 18.3333 5.08333 17.769 5.08333 17.0729C5.08333 16.3768 4.561 15.8125 3.91667 15.8125C3.27233 15.8125 2.75 16.3768 2.75 17.0729C2.75 17.769 3.27233 18.3333 3.91667 18.3333Z" fill="white"/>
<path d="M7.41667 18.3333C8.061 18.3333 8.58334 17.769 8.58334 17.0729C8.58334 16.3768 8.061 15.8125 7.41667 15.8125C6.77233 15.8125 6.25 16.3768 6.25 17.0729C6.25 17.769 6.77233 18.3333 7.41667 18.3333Z" fill="white"/>
<path d="M10.9166 18.3333C11.561 18.3333 12.0833 17.769 12.0833 17.0729C12.0833 16.3768 11.561 15.8125 10.9166 15.8125C10.2723 15.8125 9.75 16.3768 9.75 17.0729C9.75 17.769 10.2723 18.3333 10.9166 18.3333Z" fill="white"/>
</g>
<defs>
<clipPath id="clip0_281_3839">
<rect width="18.3333" height="22" fill="white"/>
</clipPath>
</defs>
</svg>
