<svg width="169" height="41" viewBox="0 0 169 41" fill="none" xmlns="http://www.w3.org/2000/svg">
<path d="M50.8447 29.5673H62.7194V25.8969H55.0652V12.0715H50.8447V29.5673Z" fill="white"/>
<path d="M69.7547 27.1206C68.0617 27.1206 67.1795 25.6035 67.1795 23.3278C67.1795 21.0521 68.0617 19.5105 69.7547 19.5105C71.4477 19.5105 72.3538 21.0521 72.3538 23.3278C72.3538 25.6035 71.4477 27.1206 69.7547 27.1206ZM69.7786 29.9591C73.7129 29.9591 76.2882 27.0961 76.2882 23.3278C76.2882 19.5595 73.7129 16.6965 69.7786 16.6965C65.868 16.6965 63.2451 19.5595 63.2451 23.3278C63.2451 27.0961 65.868 29.9591 69.7786 29.9591Z" fill="white"/>
<path d="M83.0985 33.8985C84.9107 33.8985 86.5083 33.4825 87.5813 32.5037C88.5589 31.5984 89.2027 30.228 89.2027 28.3439V17.0389H85.4829V18.3847H85.4353C84.7199 17.3326 83.6231 16.6719 82.0016 16.6719C78.9733 16.6719 76.875 19.2657 76.875 22.9361C76.875 26.7778 79.4264 28.8822 82.1685 28.8822C83.6469 28.8822 84.5768 28.2705 85.2922 27.4385H85.3876V28.6865C85.3876 30.2036 84.6961 31.0845 83.0508 31.0845C81.7632 31.0845 81.1194 30.5217 80.9048 29.861H77.1373C77.5188 32.4793 79.7364 33.8985 83.0985 33.8985ZM83.0746 25.9214C81.6201 25.9214 80.6663 24.6979 80.6663 22.8138C80.6663 20.9051 81.6201 19.6816 83.0746 19.6816C84.6961 19.6816 85.5545 21.1009 85.5545 22.7893C85.5545 24.5511 84.7676 25.9214 83.0746 25.9214Z" fill="white"/>
<path d="M96.8504 27.1204C95.1574 27.1204 94.2752 25.6032 94.2752 23.3276C94.2752 21.0519 95.1574 19.5103 96.8504 19.5103C98.5434 19.5103 99.4491 21.0519 99.4491 23.3276C99.4491 25.6032 98.5434 27.1204 96.8504 27.1204ZM96.8743 29.9588C100.808 29.9588 103.383 27.0959 103.383 23.3276C103.383 19.5592 100.808 16.6963 96.8743 16.6963C92.9637 16.6963 90.3408 19.5592 90.3408 23.3276C90.3408 27.0959 92.9637 29.9588 96.8743 29.9588Z" fill="white"/>
<path d="M104.523 29.5676H108.41V17.0391H104.523V29.5676ZM104.523 15.3018H108.41V12.0718H104.523V15.3018Z" fill="white"/>
<path d="M110.097 33.7027H113.983V28.2705H114.031C114.794 29.3227 115.915 29.9589 117.489 29.9589C120.684 29.9589 122.806 27.3651 122.806 23.3031C122.806 19.5348 120.827 16.6719 117.584 16.6719C115.915 16.6719 114.723 17.4304 113.888 18.556H113.816V17.0389H110.097V33.7027ZM116.487 26.8757C114.818 26.8757 113.864 25.4809 113.864 23.45C113.864 21.419 114.723 19.8774 116.416 19.8774C118.085 19.8774 118.872 21.2966 118.872 23.45C118.872 25.5788 117.965 26.8757 116.487 26.8757Z" fill="white"/>
<path d="M129.134 29.9589C132.329 29.9589 134.689 28.5396 134.689 25.799C134.689 22.5935 132.162 22.0307 130.016 21.6637C128.466 21.37 127.083 21.2477 127.083 20.3668C127.083 19.5838 127.822 19.2167 128.776 19.2167C129.849 19.2167 130.588 19.5593 130.731 20.6849H134.308C134.117 18.2135 132.257 16.6719 128.8 16.6719C125.915 16.6719 123.53 18.0422 123.53 20.6849C123.53 23.6213 125.795 24.2085 127.918 24.5756C129.539 24.8692 131.017 24.9915 131.017 26.1172C131.017 26.9246 130.278 27.3651 129.11 27.3651C127.822 27.3651 127.011 26.7534 126.868 25.5054H123.196C123.316 28.2705 125.557 29.9589 129.134 29.9589Z" fill="white"/>
<path d="M139.969 29.9346C141.662 29.9346 142.735 29.2494 143.617 28.0259H143.689V29.5675H147.408V17.0391H143.522V24.0374C143.522 25.53 142.711 26.5577 141.376 26.5577C140.136 26.5577 139.54 25.7992 139.54 24.4289V17.0391H135.677V25.2609C135.677 28.0504 137.155 29.9346 139.969 29.9346Z" fill="white"/>
<path d="M149.095 29.5674H152.981V22.5446C152.981 21.0519 153.697 19.9997 154.913 19.9997C156.081 19.9997 156.63 20.7828 156.63 22.1286V29.5674H160.516V22.5446C160.516 21.0519 161.208 19.9997 162.448 19.9997C163.616 19.9997 164.165 20.7828 164.165 22.1286V29.5674H168.051V21.419C168.051 18.605 166.668 16.6719 163.902 16.6719C162.329 16.6719 161.017 17.357 160.063 18.8741H160.016C159.396 17.5283 158.18 16.6719 156.582 16.6719C154.817 16.6719 153.649 17.5283 152.886 18.8252H152.815V17.0389H149.095V29.5674Z" fill="white"/>
<path fill-rule="evenodd" clip-rule="evenodd" d="M19.8705 40.7827C30.8449 40.7827 39.7411 31.6532 39.7411 20.3913C39.7411 9.12951 30.8449 0 19.8705 0C8.89635 0 0 9.12951 0 20.3913C0 31.6532 8.89635 40.7827 19.8705 40.7827ZM22.9376 15.7549C24.6313 14.0167 24.6313 11.1985 22.9376 9.46022C21.2437 7.72198 18.4975 7.72198 16.8036 9.46022C15.1098 11.1985 15.1098 14.0167 16.8036 15.7549L19.8705 18.9022L22.9376 15.7549ZM24.3886 23.5387C26.0825 25.277 28.8287 25.277 30.5226 23.5387C32.2163 21.8005 32.2163 18.9823 30.5226 17.244C28.8287 15.5058 26.0825 15.5058 24.3886 17.244L21.3217 20.3914L24.3886 23.5387ZM22.9376 31.3225C24.6313 29.5842 24.6313 26.7661 22.9376 25.0278L19.8705 21.8805L16.8036 25.0278C15.1098 26.7661 15.1098 29.5842 16.8036 31.3225C18.4975 33.0608 21.2437 33.0608 22.9376 31.3225ZM9.21859 23.5387C7.52478 21.8005 7.52478 18.9823 9.21859 17.244C10.9125 15.5058 13.6587 15.5058 15.3526 17.244L18.4195 20.3914L15.3526 23.5387C13.6587 25.277 10.9125 25.277 9.21859 23.5387Z" fill="white"/>
</svg>
